<?xml version="1.0" encoding="UTF-8"?>
<svg width="192px" height="41px" viewBox="0 0 192 41" version="1.1" xmlns="http://www.w3.org/2000/svg" xmlns:xlink="http://www.w3.org/1999/xlink">
    <!-- Generator: Sketch 55 (78076) - https://sketchapp.com -->
    <title>walletlylogo</title>
    <desc>Created with Sketch.</desc>
    <defs>
        <linearGradient x1="103.25677%" y1="22.4729673%" x2="0%" y2="95.6004904%" id="linearGradient-1">
            <stop stop-color="#2FD8E5" offset="0%"></stop>
            <stop stop-color="#FF6CD6" offset="100%"></stop>
        </linearGradient>
        <path d="M3.71422602,5.66810614 C-1.21187269,10.7466035 -0.598293904,18.6069599 1.87130611,21.8751274 L1.87130611,21.8751274 L2.01978781,22.0317906 L2.12132309,22.1188257 C2.50344511,22.4267123 6.33558307,22.9859127 9.3456128,20.5696011 L9.3456128,20.5696011 L22.5735853,6.71143925 L21.5615079,5.66810614 C19.0973667,3.12776952 15.8678898,1.85814518 12.637321,1.85814518 L12.637321,1.85814518 C9.40893588,1.85814518 6.17945893,3.12776952 3.71422602,5.66810614 L3.71422602,5.66810614 Z" id="path-2"></path>
        <linearGradient x1="86.3033665%" y1="16.7662099%" x2="15.9166651%" y2="105.05414%" id="linearGradient-4">
            <stop stop-color="#2FD8E5" offset="0%"></stop>
            <stop stop-color="#FF6CD6" offset="100%"></stop>
        </linearGradient>
        <path d="M43.2998836,5.76710855 L42.6044215,6.48188421 L55.0375802,19.6655241 C51.716394,17.0022504 48.6364905,18.4024274 48.6364905,18.4024274 L48.6364905,18.4024274 C47.8416767,18.6657086 46.8459759,19.27713 46.2465903,19.8950792 L46.2465903,19.8950792 L32.7784268,33.7543289 L37.8137032,38.9307408 C39.9874316,41.1642787 43.3446465,41.4275599 45.8033287,39.7336395 L45.8033287,39.7336395 C46.1417796,39.5019086 46.4627621,39.2364515 46.7619091,38.9307408 L46.7619091,38.9307408 L49.7533786,35.8562263 L61.169001,24.1282482 C62.4125352,22.8488325 63.3405458,21.3714118 63.9573999,19.7939009 L63.9573999,19.7939009 C65.7883103,15.1125011 64.8602997,9.5596625 61.169001,5.76710855 L61.169001,5.76710855 C58.7015845,3.23329956 55.4677405,1.96476316 52.2349882,1.96476316 L52.2349882,1.96476316 C49.0011441,1.96476316 45.7673001,3.23329956 43.2998836,5.76710855 L43.2998836,5.76710855 Z" id="path-5"></path>
        <linearGradient x1="103.25677%" y1="25.9609261%" x2="0%" y2="89.822438%" id="linearGradient-7">
            <stop stop-color="#2FD8E5" offset="0%"></stop>
            <stop stop-color="#FF6CD6" offset="100%"></stop>
        </linearGradient>
        <path d="M28.6427747,1.77546184 L9.94499848,21.3561807 C8.05949926,22.8695033 5.98839792,23.1871814 4.58218889,23.1871814 L4.58218889,23.1871814 C4.36492523,23.1871814 4.14766157,23.1795658 3.93585679,23.1610708 L3.93585679,23.1610708 L18.7294378,38.5608417 C19.7950123,39.6585717 21.2143227,40.2634656 22.7264341,40.2634656 L22.7264341,40.2634656 C24.246188,40.2634656 25.6775079,39.6520441 26.755092,38.5412588 L26.755092,38.5412588 L45.5565871,19.190095 C46.2640587,18.4600882 47.1363887,17.9117671 48.0775006,17.6017046 L48.0775006,17.6017046 C49.0688343,17.275323 50.0044874,17.1077805 50.8582571,17.1077805 L50.8582571,17.1077805 C50.9903622,17.1077805 51.1202837,17.1121322 51.2480216,17.1197478 L51.2480216,17.1197478 L36.8223695,1.7602307 C35.7338676,0.641829825 34.2872629,0.0249686404 32.747857,0.0249686404 L32.747857,0.0249686404 C31.1964416,0.0249686404 29.7378273,0.649445395 28.6427747,1.77546184 L28.6427747,1.77546184 Z" id="path-8"></path>
    </defs>
    <g id="walletlylogo" stroke="none" stroke-width="1" fill="none" fill-rule="evenodd">
        <g id="Group-2">
            <g id="Group">
                <mask id="mask-3" fill="white">
                    <use xlink:href="#path-2"></use>
                </mask>
                <use id="Clip-2" fill="url(#linearGradient-1)" fill-rule="nonzero" xlink:href="#path-2"></use>
                <mask id="mask-6" fill="white">
                    <use xlink:href="#path-5"></use>
                </mask>
                <use id="Clip-5" fill="url(#linearGradient-4)" fill-rule="nonzero" xlink:href="#path-5"></use>
                <mask id="mask-9" fill="white">
                    <use xlink:href="#path-8"></use>
                </mask>
                <use id="Clip-8" fill="url(#linearGradient-7)" fill-rule="nonzero" xlink:href="#path-8"></use>
            </g>
            <path d="M188.514046,12.8857143 L184.216509,19.7887193 L179.964728,12.8857143 L176.287318,12.8857143 L182.640303,22.1739841 L182.640303,29.2857143 L185.648218,29.2857143 L185.648218,22.1739841 L192,12.8857143 L188.514046,12.8857143 Z M168.430976,12.8857143 L168.430976,29.2857143 L178.531987,29.2857143 L178.531987,26.6905647 L171.411896,26.6905647 L171.411896,12.8857143 L168.430976,12.8857143 Z M152.942761,12.8857143 L152.942761,15.4333209 L158.162132,15.4333209 L158.162132,29.2857143 L161.192616,29.2857143 L161.192616,15.4333209 L166.410774,15.4333209 L166.410774,12.8857143 L152.942761,12.8857143 Z M140.148148,12.8857143 L140.148148,29.2857143 L151.820426,29.2857143 L151.820426,26.6905647 L143.167133,26.6905647 L143.167133,22.0580257 L150.956306,22.0580257 L150.956306,19.6020262 L143.167133,19.6020262 L143.167133,15.4333209 L151.38897,15.4333209 L151.38897,12.8857143 L140.148148,12.8857143 Z M128.026936,12.8857143 L128.026936,29.2857143 L138.127946,29.2857143 L138.127946,26.6905647 L131.005821,26.6905647 L131.005821,12.8857143 L128.026936,12.8857143 Z M115.681257,12.8857143 L115.681257,29.2857143 L125.782267,29.2857143 L125.782267,26.6905647 L118.661335,26.6905647 L118.661335,12.8857143 L115.681257,12.8857143 Z M104.198608,12.8857143 L96.8260382,29.2857143 L100.200254,29.2857143 L101.733439,25.5332997 L109.083072,25.5332997 L110.662132,29.2857143 L114.109989,29.2857143 L106.808645,12.8857143 L104.198608,12.8857143 Z M105.267218,16.3383459 L107.824916,23.0278195 L102.662177,23.0278195 L105.267218,16.3383459 Z M94.0602565,12.8857143 L90.702826,24.9303159 L90.654448,24.9303159 L86.9849797,12.8857143 L83.8670202,12.8857143 L80.1261944,24.9303159 L80.0778164,24.9303159 L76.7917434,12.8857143 L73.4814815,12.8857143 L78.4474791,29.2857143 L81.3719269,29.2857143 L85.353433,16.9848446 L85.4030204,16.9848446 L89.3833171,29.2857143 L92.3089743,29.2857143 L97.2749719,12.8857143 L94.0602565,12.8857143 Z" id="Fill-10" fill="#10141E"></path>
        </g>
    </g>
</svg>